<svg version="1.1" xmlns="http://www.w3.org/2000/svg" xmlns:xlink="http://www.w3.org/1999/xlink" width="136" height="155"><defs/><g><text fill="#cfcfcf" stroke="none" font-family="Arial" font-size="8px" font-style="normal" font-weight="normal" text-decoration="undefined" x="0" y="0" text-anchor="start" dominant-baseline="alphabetic" transform="matrix(1 0 0 1 0 0)">UNREGISTERED</text><text fill="#cfcfcf" stroke="none" font-family="Arial" font-size="8px" font-style="normal" font-weight="normal" text-decoration="undefined" x="0" y="12" text-anchor="start" dominant-baseline="alphabetic" transform="matrix(1 0 0 1 0 0)">UNREGISTERED</text><text fill="#cfcfcf" stroke="none" font-family="Arial" font-size="8px" font-style="normal" font-weight="normal" text-decoration="undefined" x="0" y="24" text-anchor="start" dominant-baseline="alphabetic" transform="matrix(1 0 0 1 0 0)">UNREGISTERED</text><text fill="#cfcfcf" stroke="none" font-family="Arial" font-size="8px" font-style="normal" font-weight="normal" text-decoration="undefined" x="0" y="36" text-anchor="start" dominant-baseline="alphabetic" transform="matrix(1 0 0 1 0 0)">UNREGISTERED</text><text fill="#cfcfcf" stroke="none" font-family="Arial" font-size="8px" font-style="normal" font-weight="normal" text-decoration="undefined" x="0" y="48" text-anchor="start" dominant-baseline="alphabetic" transform="matrix(1 0 0 1 0 0)">UNREGISTERED</text><text fill="#cfcfcf" stroke="none" font-family="Arial" font-size="8px" font-style="normal" font-weight="normal" text-decoration="undefined" x="0" y="60" text-anchor="start" dominant-baseline="alphabetic" transform="matrix(1 0 0 1 0 0)">UNREGISTERED</text><text fill="#cfcfcf" stroke="none" font-family="Arial" font-size="8px" font-style="normal" font-weight="normal" text-decoration="undefined" x="0" y="72" text-anchor="start" dominant-baseline="alphabetic" transform="matrix(1 0 0 1 0 0)">UNREGISTERED</text><text fill="#cfcfcf" stroke="none" font-family="Arial" font-size="8px" font-style="normal" font-weight="normal" text-decoration="undefined" x="0" y="84" text-anchor="start" dominant-baseline="alphabetic" transform="matrix(1 0 0 1 0 0)">UNREGISTERED</text><text fill="#cfcfcf" stroke="none" font-family="Arial" font-size="8px" font-style="normal" font-weight="normal" text-decoration="undefined" x="0" y="96" text-anchor="start" dominant-baseline="alphabetic" transform="matrix(1 0 0 1 0 0)">UNREGISTERED</text><text fill="#cfcfcf" stroke="none" font-family="Arial" font-size="8px" font-style="normal" font-weight="normal" text-decoration="undefined" x="0" y="108" text-anchor="start" dominant-baseline="alphabetic" transform="matrix(1 0 0 1 0 0)">UNREGISTERED</text><text fill="#cfcfcf" stroke="none" font-family="Arial" font-size="8px" font-style="normal" font-weight="normal" text-decoration="undefined" x="0" y="120" text-anchor="start" dominant-baseline="alphabetic" transform="matrix(1 0 0 1 0 0)">UNREGISTERED</text><text fill="#cfcfcf" stroke="none" font-family="Arial" font-size="8px" font-style="normal" font-weight="normal" text-decoration="undefined" x="0" y="132" text-anchor="start" dominant-baseline="alphabetic" transform="matrix(1 0 0 1 0 0)">UNREGISTERED</text><text fill="#cfcfcf" stroke="none" font-family="Arial" font-size="8px" font-style="normal" font-weight="normal" text-decoration="undefined" x="0" y="144" text-anchor="start" dominant-baseline="alphabetic" transform="matrix(1 0 0 1 0 0)">UNREGISTERED</text><text fill="#cfcfcf" stroke="none" font-family="Arial" font-size="8px" font-style="normal" font-weight="normal" text-decoration="undefined" x="70" y="0" text-anchor="start" dominant-baseline="alphabetic" transform="matrix(1 0 0 1 0 0)">UNREGISTERED</text><text fill="#cfcfcf" stroke="none" font-family="Arial" font-size="8px" font-style="normal" font-weight="normal" text-decoration="undefined" x="70" y="12" text-anchor="start" dominant-baseline="alphabetic" transform="matrix(1 0 0 1 0 0)">UNREGISTERED</text><text fill="#cfcfcf" stroke="none" font-family="Arial" font-size="8px" font-style="normal" font-weight="normal" text-decoration="undefined" x="70" y="24" text-anchor="start" dominant-baseline="alphabetic" transform="matrix(1 0 0 1 0 0)">UNREGISTERED</text><text fill="#cfcfcf" stroke="none" font-family="Arial" font-size="8px" font-style="normal" font-weight="normal" text-decoration="undefined" x="70" y="36" text-anchor="start" dominant-baseline="alphabetic" transform="matrix(1 0 0 1 0 0)">UNREGISTERED</text><text fill="#cfcfcf" stroke="none" font-family="Arial" font-size="8px" font-style="normal" font-weight="normal" text-decoration="undefined" x="70" y="48" text-anchor="start" dominant-baseline="alphabetic" transform="matrix(1 0 0 1 0 0)">UNREGISTERED</text><text fill="#cfcfcf" stroke="none" font-family="Arial" font-size="8px" font-style="normal" font-weight="normal" text-decoration="undefined" x="70" y="60" text-anchor="start" dominant-baseline="alphabetic" transform="matrix(1 0 0 1 0 0)">UNREGISTERED</text><text fill="#cfcfcf" stroke="none" font-family="Arial" font-size="8px" font-style="normal" font-weight="normal" text-decoration="undefined" x="70" y="72" text-anchor="start" dominant-baseline="alphabetic" transform="matrix(1 0 0 1 0 0)">UNREGISTERED</text><text fill="#cfcfcf" stroke="none" font-family="Arial" font-size="8px" font-style="normal" font-weight="normal" text-decoration="undefined" x="70" y="84" text-anchor="start" dominant-baseline="alphabetic" transform="matrix(1 0 0 1 0 0)">UNREGISTERED</text><text fill="#cfcfcf" stroke="none" font-family="Arial" font-size="8px" font-style="normal" font-weight="normal" text-decoration="undefined" x="70" y="96" text-anchor="start" dominant-baseline="alphabetic" transform="matrix(1 0 0 1 0 0)">UNREGISTERED</text><text fill="#cfcfcf" stroke="none" font-family="Arial" font-size="8px" font-style="normal" font-weight="normal" text-decoration="undefined" x="70" y="108" text-anchor="start" dominant-baseline="alphabetic" transform="matrix(1 0 0 1 0 0)">UNREGISTERED</text><text fill="#cfcfcf" stroke="none" font-family="Arial" font-size="8px" font-style="normal" font-weight="normal" text-decoration="undefined" x="70" y="120" text-anchor="start" dominant-baseline="alphabetic" transform="matrix(1 0 0 1 0 0)">UNREGISTERED</text><text fill="#cfcfcf" stroke="none" font-family="Arial" font-size="8px" font-style="normal" font-weight="normal" text-decoration="undefined" x="70" y="132" text-anchor="start" dominant-baseline="alphabetic" transform="matrix(1 0 0 1 0 0)">UNREGISTERED</text><text fill="#cfcfcf" stroke="none" font-family="Arial" font-size="8px" font-style="normal" font-weight="normal" text-decoration="undefined" x="70" y="144" text-anchor="start" dominant-baseline="alphabetic" transform="matrix(1 0 0 1 0 0)">UNREGISTERED</text><g><rect fill="#C0C0C0" stroke="none" x="375" y="191" width="52" height="33" transform="matrix(1 0 0 1 -294 -174)" fill-opacity="0.2"/></g><g><rect fill="#ffffff" stroke="none" x="368" y="184" width="52" height="33" transform="matrix(1 0 0 1 -294 -174)"/></g><g><path fill="none" stroke="#000000" paint-order="fill stroke markers" d=" M 74 10 L 126 10 L 126 43 L 74 43 L 74 10 Z Z" stroke-miterlimit="10" stroke-dasharray=""/></g><g><g><path fill="none" stroke="none"/><text fill="#000000" stroke="none" font-family="Arial" font-size="13px" font-style="normal" font-weight="bold" text-decoration="undefined" x="394" y="195.5" text-anchor="middle" dominant-baseline="central" transform="matrix(1 0 0 1 -294 -174)">Entity1</text></g></g><g><rect fill="#ffffff" stroke="none" x="304" y="304" width="60" height="15" transform="matrix(1 0 0 1 -294 -174)"/></g><g><path fill="none" stroke="#000000" paint-order="fill stroke markers" d=" M 10 130 L 70 130 L 70 145 L 10 145 L 10 130 Z Z" stroke-miterlimit="10" stroke-dasharray=""/></g></g></svg>