<svg version="1.1" xmlns="http://www.w3.org/2000/svg" xmlns:xlink="http://www.w3.org/1999/xlink" x="0px" y="0px" width="14px" height="14px" viewBox="0 0 14 14" enable-background="new 0 0 14 14" xml:space="preserve">
<polygon fill="#EC3030" points="12.156,12.876 7.206,7.926 2.255,12.876 1.548,12.17 6.498,7.22 1.548,2.268 2.255,1.562 7.206,6.512 12.156,1.562 12.862,2.268 7.912,7.22 12.862,12.17 12.156,12.876 12.156,12.876 "/>
<polygon fill="#FFFFFF" points="11.45,12.157 6.5,7.207 1.549,12.157 0.843,11.45 5.792,6.5 0.843,1.549 1.549,0.843 6.5,5.792 11.45,0.843 12.157,1.549 7.207,6.5 12.157,11.45 11.45,12.157 11.45,12.157 "/>
</svg>
