<?xml version="1.0" encoding="utf-8"?>
<!-- Generator: Adobe Illustrator 17.0.0, SVG Export Plug-In . SVG Version: 6.00 Build 0)  -->
<!DOCTYPE svg PUBLIC "-//W3C//DTD SVG 1.1//EN" "http://www.w3.org/Graphics/SVG/1.1/DTD/svg11.dtd">
<svg version="1.1" id="Шар_1" xmlns="http://www.w3.org/2000/svg" xmlns:xlink="http://www.w3.org/1999/xlink" x="0px" y="0px"
	 width="94px" height="94px" viewBox="0 0 94 94" enable-background="new 0 0 94 94" xml:space="preserve">
<g>
	<g>
		<path fill="#E83D3C" d="M47.654,93.672c-25.436,0-46.131-20.694-46.131-46.131S22.218,1.408,47.654,1.408
			c25.437,0,46.132,20.695,46.132,46.132S73.091,93.672,47.654,93.672z M47.654,6.382c-22.694,0-41.159,18.463-41.159,41.16
			c0,22.694,18.463,41.159,41.159,41.159s41.16-18.463,41.16-41.159C88.812,24.845,70.349,6.382,47.654,6.382z"/>
	</g>
	<g>
		<g>
			<path fill="#E83D3C" d="M43.46,58.605H31.403V33.543h12.129v3.938h-8.135v6.337h4.975l-1.126,3.759h-3.849v7.446h8.061
				L43.46,58.605L43.46,58.605z"/>
		</g>
		<g>
			<path fill="#E83D3C" d="M49.16,56.814c0,0.477-0.183,0.895-0.545,1.254c-0.363,0.357-0.801,0.537-1.307,0.537
				c-0.484,0-0.908-0.18-1.271-0.537c-0.362-0.358-0.545-0.776-0.545-1.254c0-0.501,0.183-0.931,0.545-1.289
				c0.363-0.357,0.787-0.537,1.271-0.537c0.508,0,0.944,0.18,1.307,0.537C48.979,55.883,49.16,56.311,49.16,56.814z"/>
		</g>
		<g>
			<path fill="#E83D3C" d="M59.874,58.605h-3.996V37.516h-5.229v-3.974h14.6v3.974h-5.374L59.874,58.605L59.874,58.605z"/>
		</g>
		<g>
			<path fill="#E83D3C" d="M65.249,56.814c0,0.477-0.182,0.895-0.545,1.254c-0.363,0.357-0.8,0.537-1.307,0.537
				c-0.483,0-0.907-0.18-1.27-0.537c-0.363-0.358-0.545-0.776-0.545-1.254c0-0.501,0.182-0.931,0.545-1.289
				c0.363-0.357,0.787-0.537,1.27-0.537c0.509,0,0.944,0.18,1.307,0.537C65.068,55.883,65.249,56.311,65.249,56.814z"/>
		</g>
	</g>
</g>
<g>
	<g>
		
			<linearGradient id="SVGID_1_" gradientUnits="userSpaceOnUse" x1="711.7026" y1="133.6039" x2="711.7026" y2="225.8675" gradientTransform="matrix(1 0 0 -1 -665.5552 226.2495)">
			<stop  offset="0" style="stop-color:#83C179"/>
			<stop  offset="1" style="stop-color:#75CAE4"/>
		</linearGradient>
		<path fill="url(#SVGID_1_)" d="M46.147,92.646c-25.436,0-46.131-20.694-46.131-46.131S20.711,0.382,46.147,0.382
			c25.437,0,46.132,20.695,46.132,46.132S71.584,92.646,46.147,92.646z M46.147,5.356c-22.694,0-41.159,18.463-41.159,41.16
			c0,22.694,18.463,41.159,41.159,41.159s41.16-18.463,41.16-41.159C87.306,23.819,68.842,5.356,46.147,5.356z"/>
	</g>
	<g>
		<g>
			
				<linearGradient id="SVGID_2_" gradientUnits="userSpaceOnUse" x1="701.5162" y1="168.672" x2="701.5162" y2="193.7342" gradientTransform="matrix(1 0 0 -1 -665.5552 226.2495)">
				<stop  offset="0" style="stop-color:#83C179"/>
				<stop  offset="1" style="stop-color:#75CAE4"/>
			</linearGradient>
			<path fill="url(#SVGID_2_)" d="M41.953,57.577H29.896V32.515h12.129v3.938H33.89v6.337h4.975l-1.126,3.759H33.89v7.446h8.061
				L41.953,57.577L41.953,57.577z"/>
		</g>
		<g>
			
				<linearGradient id="SVGID_3_" gradientUnits="userSpaceOnUse" x1="711.3749" y1="168.671" x2="711.3749" y2="172.2881" gradientTransform="matrix(1 0 0 -1 -665.5552 226.2495)">
				<stop  offset="0" style="stop-color:#83C179"/>
				<stop  offset="1" style="stop-color:#75CAE4"/>
			</linearGradient>
			<path fill="url(#SVGID_3_)" d="M47.654,55.787c0,0.477-0.183,0.895-0.545,1.254c-0.363,0.357-0.801,0.537-1.307,0.537
				c-0.484,0-0.908-0.18-1.271-0.537c-0.362-0.358-0.545-0.776-0.545-1.254c0-0.501,0.183-0.931,0.545-1.289
				c0.363-0.357,0.787-0.537,1.271-0.537c0.508,0,0.944,0.18,1.307,0.537C47.473,54.856,47.654,55.285,47.654,55.787z"/>
		</g>
		<g>
			
				<linearGradient id="SVGID_4_" gradientUnits="userSpaceOnUse" x1="721.9976" y1="168.672" x2="721.9976" y2="193.7342" gradientTransform="matrix(1 0 0 -1 -665.5552 226.2495)">
				<stop  offset="0" style="stop-color:#83C179"/>
				<stop  offset="1" style="stop-color:#75CAE4"/>
			</linearGradient>
			<path fill="url(#SVGID_4_)" d="M58.368,57.577h-3.996V36.489h-5.229v-3.974h14.6v3.974h-5.374V57.577L58.368,57.577z"/>
		</g>
		<g>
			
				<linearGradient id="SVGID_5_" gradientUnits="userSpaceOnUse" x1="727.464" y1="168.671" x2="727.464" y2="172.2881" gradientTransform="matrix(1 0 0 -1 -665.5552 226.2495)">
				<stop  offset="0" style="stop-color:#83C179"/>
				<stop  offset="1" style="stop-color:#75CAE4"/>
			</linearGradient>
			<path fill="url(#SVGID_5_)" d="M63.742,55.787c0,0.477-0.182,0.895-0.545,1.254c-0.363,0.357-0.8,0.537-1.307,0.537
				c-0.483,0-0.907-0.18-1.27-0.537c-0.363-0.358-0.545-0.776-0.545-1.254c0-0.501,0.182-0.931,0.545-1.289
				c0.363-0.357,0.787-0.537,1.27-0.537c0.509,0,0.944,0.18,1.307,0.537C63.561,54.856,63.742,55.285,63.742,55.787z"/>
		</g>
	</g>
</g>
</svg>
