<svg version="1.1" xmlns="http://www.w3.org/2000/svg" xmlns:xlink="http://www.w3.org/1999/xlink" x="0px" y="0px"
	 width="58px" height="56px" viewBox="0 0 58 56" enable-background="new 0 0 58 56" xml:space="preserve">
<path fill="#fecb30" d="M7.549,24.222l47.704-10.544L52.306,0.341L0.882,11.706l2.766,12.516H2.87v31.437h54.248V24.222H7.549z
	 M50.566,3.067l0.473,2.139l-3.194-1.537L50.566,3.067z M44.682,4.368l6.905,3.322l0.939,4.249l-1.083,0.239L38.191,5.803
	L44.682,4.368z M35.028,6.502l13.254,6.375l-6.433,1.421L28.595,7.924L35.028,6.502z M25.435,8.622l13.253,6.375l-6.434,1.422
	L19,10.044L25.435,8.622z M15.838,10.743l13.254,6.375l-7.377,1.631L9.743,12.09L15.838,10.743z M3.609,13.446l3.191-0.705
	L18.77,19.4l-6.62,1.463l-7.869-4.377L3.609,13.446z M9.207,21.513L5.57,22.317l-0.712-3.223L9.207,21.513z M54.831,53.371H5.157
	V26.508h49.674V53.371z"/>
</svg>
