<svg version="1.1" xmlns="http://www.w3.org/2000/svg" xmlns:xlink="http://www.w3.org/1999/xlink" x="0px" y="0px"
	 width="56px" height="56px" viewBox="0 0 56 56" enable-background="new 0 0 56 56" xml:space="preserve">
<path fill="#0ff" d="M29.605,2.713c0.667,0,1.21,0.543,1.21,1.211v3.789v1.581l1.538,0.366c1.709,0.406,3.326,1.029,4.806,1.852
	l1.319,0.734l1.067-1.067l2.574-2.573c0.229-0.229,0.533-0.355,0.855-0.355c0.323,0,0.628,0.126,0.857,0.355l3.026,3.025
	c0.472,0.472,0.472,1.241,0,1.712l-2.443,2.441l-1.11,1.111l0.814,1.343c1.023,1.684,1.77,3.503,2.219,5.406l0.363,1.54h1.583h3.792
	c0.667,0,1.21,0.543,1.21,1.209v4.282c0,0.668-0.543,1.211-1.21,1.211H48.01h-1.497l-0.422,1.437
	c-0.526,1.792-1.312,3.489-2.336,5.042l-0.897,1.363l1.153,1.153l2.312,2.31c0.472,0.472,0.471,1.239,0,1.711l-3.025,3.024
	c-0.228,0.229-0.533,0.355-0.856,0.355c-0.323,0-0.628-0.126-0.857-0.355l-2.745-2.743l-1.025-1.024l-1.292,0.656
	c-1.318,0.668-2.72,1.18-4.167,1.523l-1.539,0.364v1.582v3.791c0,0.668-0.543,1.211-1.21,1.211h-4.28
	c-0.668,0-1.211-0.543-1.211-1.211V48.01v-1.495l-1.434-0.424c-1.54-0.455-3.035-1.119-4.441-1.973l-1.342-0.815l-1.11,1.111
	l-2.977,2.979c-0.229,0.228-0.533,0.354-0.855,0.354c-0.323,0-0.627-0.126-0.856-0.354l-3.027-3.028
	c-0.471-0.472-0.471-1.24,0-1.712l3.107-3.109l1.067-1.068l-0.734-1.319c-0.669-1.202-1.208-2.493-1.604-3.838l-0.423-1.436H7.989
	H3.925c-0.668,0-1.211-0.543-1.211-1.211v-4.282c0-0.667,0.543-1.209,1.211-1.209h3.79h1.582l0.364-1.54
	c0.342-1.445,0.854-2.847,1.524-4.166l0.656-1.294l-1.026-1.025l-3.279-3.28c-0.228-0.229-0.354-0.533-0.354-0.856
	c0-0.324,0.126-0.627,0.354-0.856l3.028-3.026c0.228-0.228,0.532-0.354,0.855-0.354c0.323,0,0.627,0.126,0.856,0.354l2.848,2.847
	l1.153,1.154l1.362-0.899c1.551-1.023,3.247-1.809,5.041-2.336l1.436-0.422V7.989V3.924c0-0.668,0.543-1.211,1.211-1.211H29.605
	 M28,41.234c7.298,0,13.235-5.938,13.235-13.236c0-7.297-5.938-13.235-13.235-13.235c-7.298,0-13.235,5.938-13.235,13.235
	C14.765,35.297,20.702,41.234,28,41.234 M29.605,0.713h-4.28c-1.773,0-3.211,1.438-3.211,3.211v4.064
	c-2.001,0.587-3.876,1.463-5.578,2.586l-2.848-2.848c-0.626-0.627-1.448-0.939-2.27-0.939C10.597,6.787,9.776,7.1,9.149,7.727
	l-3.027,3.025c-1.254,1.254-1.254,3.287,0,4.542l3.279,3.279c-0.735,1.449-1.304,2.992-1.687,4.611h-3.79
	c-1.773,0-3.211,1.438-3.211,3.209v4.282c0,1.773,1.438,3.211,3.211,3.211h4.064c0.438,1.49,1.034,2.914,1.775,4.247l-3.107,3.109
	c-1.252,1.254-1.254,3.285,0,4.539l3.026,3.027c0.627,0.627,1.449,0.941,2.271,0.941c0.821,0,1.642-0.314,2.27-0.941l2.977-2.978
	c1.524,0.926,3.167,1.666,4.913,2.182v4.064c0,1.773,1.438,3.211,3.211,3.211h4.28c1.772,0,3.21-1.438,3.21-3.211v-3.791
	c1.618-0.382,3.162-0.951,4.61-1.685l2.745,2.742c0.627,0.627,1.448,0.94,2.271,0.94c0.821,0,1.644-0.313,2.271-0.94l3.025-3.025
	c1.253-1.254,1.254-3.286,0-4.54l-2.312-2.31c1.122-1.703,1.997-3.578,2.585-5.58h4.066c1.774,0,3.21-1.437,3.21-3.211v-4.282
	c0-1.771-1.436-3.209-3.21-3.209h-3.792c-0.506-2.142-1.343-4.152-2.455-5.984l2.443-2.441c1.253-1.254,1.254-3.287,0-4.541
	l-3.026-3.025c-0.627-0.628-1.448-0.941-2.271-0.941c-0.821,0-1.642,0.313-2.269,0.941l-2.574,2.572
	c-1.647-0.916-3.434-1.603-5.316-2.051V3.924C32.815,2.151,31.378,0.713,29.605,0.713L29.605,0.713z M28,39.235
	c-6.195,0-11.235-5.039-11.235-11.236c0-6.195,5.04-11.234,11.235-11.234c6.195,0,11.235,5.039,11.235,11.234
	C39.235,34.196,34.195,39.235,28,39.235L28,39.235z"/>
</svg>
