<svg version="1.1" xmlns="http://www.w3.org/2000/svg" xmlns:xlink="http://www.w3.org/1999/xlink" x="0px" y="0px"
	 width="46px" height="56px" viewBox="0 0 46 56" enable-background="new 0 0 46 56" xml:space="preserve">
<path fill="#0ff" d="M8.141,6.807c-1.656,0-3,1.343-3,3c0,1.656,1.344,3,3,3c1.658,0,3-1.344,3-3
	C11.141,8.151,9.799,6.807,8.141,6.807z"/>
<path fill="#0ff" d="M8.141,15.723c-1.656,0-3,1.344-3,3c0,1.657,1.344,3,3,3c1.658,0,3-1.343,3-3
	C11.141,17.067,9.799,15.723,8.141,15.723z"/>
<path fill="#0ff" d="M8.141,24.808c-1.656,0-3,1.343-3,3c0,1.657,1.344,3,3,3c1.658,0,3-1.343,3-3
	C11.141,26.15,9.799,24.808,8.141,24.808z"/>
<path fill="#0ff" d="M8.141,34.14c-1.656,0-3,1.343-3,3c0,1.658,1.344,3,3,3c1.658,0,3-1.343,3-3
	C11.141,35.483,9.799,34.14,8.141,34.14z"/>
<path fill="#0ff" d="M8.141,43.651c-1.656,0-3,1.343-3,3c0,1.658,1.344,3,3,3c1.658,0,3-1.343,3-3
	C11.141,44.994,9.799,43.651,8.141,43.651z"/>
<path fill="#0ff" d="M37.807,6.807c-1.656,0-3,1.343-3,3c0,1.656,1.344,3,3,3c1.658,0,3-1.344,3-3
	C40.806,8.151,39.465,6.807,37.807,6.807z"/>
<path fill="#0ff" d="M37.807,15.723c-1.656,0-3,1.344-3,3c0,1.657,1.344,3,3,3c1.658,0,3-1.343,3-3
	C40.806,17.067,39.465,15.723,37.807,15.723z"/>
<path fill="#0ff" d="M37.807,24.808c-1.656,0-3,1.343-3,3c0,1.657,1.344,3,3,3c1.658,0,3-1.343,3-3
	C40.806,26.15,39.465,24.808,37.807,24.808z"/>
<path fill="#0ff" d="M37.807,34.14c-1.656,0-3,1.343-3,3c0,1.658,1.344,3,3,3c1.658,0,3-1.343,3-3
	C40.806,35.483,39.465,34.14,37.807,34.14z"/>
<path fill="#0ff" d="M37.807,43.651c-1.656,0-3,1.343-3,3c0,1.658,0.344,3,2,3c1.658,0,4-1.343,4-3
	C40.806,44.994,39.465,43.651,37.807,43.651z"/>
<path fill="#0ff" d="M41,0.499h-7.889C32.461,4.057,28.187,6.807,23,6.807c-5.188,0-9.461-2.75-10.113-6.309H5
	c-2.762,0-5,2.239-5,5.001v45C0,53.261,2.238,55.5,5,55.5h7.783c0.168-3.9,4.66-7.025,10.191-7.025S32.998,51.6,33.166,55.5H41
	c2.762,0,5-2.239,5-5.001v-45C46,2.737,43.762,0.499,41,0.499z M44,50.5c0,1.655-1.346,3-3,3h-6.178
	c-1.305-4.063-6.1-7.024-11.848-7.024c-5.75,0-10.545,2.961-11.848,7.024H5c-1.654,0-3-1.346-3-3v-45c0-1.655,1.346-3,3-3h6.418
	C13.029,6.237,17.601,8.807,23,8.807c5.398,0,9.969-2.57,11.58-6.309H41c1.654,0,3,1.346,3,3V50.5z"/>
<path fill="#0ff" d="M14.721,26.221h16.5V10.72h-16.5V26.221z"/>
<path fill="#0ff" d="M14.721,44.221h16.5v-14.5h-16.5V44.221z"/>
</svg>
