<svg version="1.1" xmlns="http://www.w3.org/2000/svg" xmlns:xlink="http://www.w3.org/1999/xlink" x="0px" y="0px"
	 width="58px" height="58px" viewBox="0 0 58 58" enable-background="new 0 0 58 58" xml:space="preserve">
<path fill="#fecb30" d="M23.868,4.976h-0.152c-0.617-2.311-2.517-4.502-4.825-4.502h-7.545c-2.309,0-4.208,2.191-4.825,4.502H6.369
	c-3.309,0-6,2.691-6,6v40.549c0,3.309,2.691,6,6,6h17.499c3.309,0,6-2.691,6-6V10.976C29.868,7.667,27.177,4.976,23.868,4.976z
	 M11.346,2.474h7.545c1.131,0,2.199,1.186,2.713,2.502H8.633C9.146,3.659,10.215,2.474,11.346,2.474z M27.868,51.525
	c0,2.206-1.794,4-4,4H6.369c-2.206,0-4-1.794-4-4V10.976c0-2.206,1.794-4,4-4h0.974h0.887h13.777h0.887h0.975c2.206,0,4,1.794,4,4
	V51.525z"/>
<path fill="#fecb30" d="M31.551,11.608v2h24.08v37.367h-24.08v2h26.08V11.608H31.551z"/>
<path fill="#fecb30" d="M38.283,16.656h-4.317v4.318h4.317V16.656z"/>
<path fill="#fecb30" d="M45.929,16.656h-4.317v4.318h4.317V16.656z"/>
<path fill="#fecb30" d="M53.283,16.656h-4.317v4.318h4.317V16.656z"/>
<path fill="#fecb30" d="M33.966,47.974h4.317v-4.318h-4.317V47.974z"/>
<path fill="#fecb30" d="M41.611,47.974h4.317v-4.318h-4.317V47.974z"/>
<path fill="#fecb30" d="M48.966,47.974h4.317v-4.318h-4.317V47.974z"/>
</svg>
