<svg version="1.1" xmlns="http://www.w3.org/2000/svg" xmlns:xlink="http://www.w3.org/1999/xlink" x="0px" y="0px"
	 width="46px" height="56px" viewBox="0 0 46 56" enable-background="new 0 0 46 56" xml:space="preserve">
<path fill="#0ff" d="M40.182,0.499H5.818c-2.762,0-5,2.239-5,5V50.5c0,2.762,2.238,5,5,5h34.363c2.762,0,5-2.238,5-5V5.499
	C45.182,2.737,42.943,0.499,40.182,0.499z M43.181,50.5c0,1.655-1.346,3-3,3H5.818c-1.654,0-3-1.345-3-3V5.499c0-1.655,1.346-3,3-3
	h34.363c1.654,0,3,1.345,3,3V50.5z"/>
<path fill="#0ff" d="M8.213,47.643h29.574V7.73H8.213V47.643z M10.213,9.73h25.574v35.912H10.213V9.73z"/>
<path fill="#0ff" d="M23,49.688c-0.552,0-1,0.447-1,1c0,0.552,0.448,1,1,1c0.553,0,1-0.448,1-1C24,50.134,23.553,49.688,23,49.688z"
	/>
</svg>
